<svg width="38" height="51" viewBox="0 0 38 51" fill="none" xmlns="http://www.w3.org/2000/svg">
<g id="Isolation_Mode" clip-path="url(#clip0_2667_16737)">
<path id="Vector" d="M37.892 20.5072C38.6794 15.148 34.6561 12.2715 29.1552 10.3466L30.9349 3.08428L26.5772 1.97963L24.8407 9.04504C23.6973 8.76067 22.5216 8.48724 21.3459 8.21381L23.0933 1.10465L18.7356 0L16.9451 7.25134C15.9959 7.0326 15.0683 6.81385 14.1622 6.58417V6.5623L8.1543 5.04203L7.00017 9.75595C7.00017 9.75595 10.236 10.5106 10.1605 10.5544C11.9295 11.0028 12.2423 12.184 12.1884 13.1246L10.1498 21.4259L7.30219 33.0084C7.08646 33.5552 6.53636 34.3646 5.30673 34.0583C5.34987 34.124 2.13557 33.2599 2.13557 33.2599L-0.0324707 38.3238L5.6411 39.7566C6.69816 40.03 7.73364 40.3035 8.74755 40.5659L6.94624 47.9048L11.3039 49.0094L13.0944 41.7472C14.2809 42.0753 15.435 42.3815 16.5676 42.6659L14.7879 49.8953L19.1455 51L20.9468 43.6721C28.3785 45.0939 33.9658 44.5252 36.3172 37.7113C38.2156 32.2209 36.2202 29.06 32.3155 26.9929C35.1631 26.3258 37.3096 24.4227 37.8812 20.5072H37.892ZM27.9363 34.6599C26.588 40.1503 17.4736 37.1864 14.5182 36.4317L16.9127 26.7086C19.8682 27.4523 29.3385 28.9397 27.9363 34.6599ZM29.2846 20.4197C28.055 25.407 20.4722 22.8696 18.0129 22.2571L20.181 13.4308C22.6403 14.0543 30.5682 15.2136 29.2846 20.4197Z" fill="white"/>
</g>
<defs>
<clipPath id="clip0_2667_16737">
<rect width="38" height="51" fill="white"/>
</clipPath>
</defs>
</svg>
