<svg width="52" height="51" viewBox="0 0 52 51" fill="none" xmlns="http://www.w3.org/2000/svg">
<g id="Isolation_Mode" clip-path="url(#clip0_2667_16215)">
<path id="Vector" d="M35.5117 30.2771C35.5117 25.2296 32.4882 23.5001 26.4319 22.7764C22.1126 22.203 21.2488 21.0469 21.2488 19.026C21.2488 17.0052 22.6948 15.708 25.568 15.708C28.1596 15.708 29.6056 16.5728 30.3192 18.7346C30.4601 19.167 30.892 19.4584 31.3333 19.4584H33.6432C34.2159 19.4584 34.6572 19.026 34.6572 18.4433V18.3023C34.0845 15.1253 31.4835 12.6814 28.1784 12.3901V8.93109C28.1784 8.35772 27.7464 7.91595 27.0234 7.77496H24.8638C24.291 7.77496 23.8497 8.20733 23.7089 8.93109V12.2491C19.3896 12.8224 16.6479 15.708 16.6479 19.3174C16.6479 24.0735 19.5305 25.9534 25.5774 26.6677C29.615 27.3915 30.9108 28.2562 30.9108 30.5591C30.9108 32.8619 28.892 34.4504 26.1596 34.4504C22.4131 34.4504 21.1173 32.8619 20.6854 30.7C20.5446 30.1267 20.1126 29.8353 19.6713 29.8353H17.2206C16.6479 29.8353 16.2065 30.2677 16.2065 30.8504V30.9914C16.7793 34.6008 19.0892 37.195 23.8403 37.9094V41.3683C23.8403 41.9417 24.2723 42.3835 24.9953 42.5245H27.1549C27.7277 42.5245 28.169 42.0921 28.3098 41.3683V37.9094C32.6291 37.1856 35.5117 34.159 35.5117 30.2677V30.2771Z" fill="white"/>
<path id="Vector_2" d="M18.6575 45.4195C7.41806 41.3778 1.6528 28.8296 5.83121 17.7289C7.99083 11.6757 12.742 7.06064 18.6481 4.89879C19.2209 4.6074 19.512 4.17503 19.512 3.45128V1.43981C19.512 0.866453 19.2209 0.424682 18.6481 0.283691C18.5073 0.283691 18.2162 0.283691 18.0753 0.424682C4.39459 4.75779 -3.09837 19.3174 1.22088 33.0217C3.81243 41.0958 10.0096 47.2994 18.0753 49.8936C18.6481 50.185 19.2303 49.8936 19.3711 49.3202C19.512 49.1792 19.512 49.0289 19.512 48.7469V46.726C19.512 46.2936 19.08 45.7109 18.6481 45.4289L18.6575 45.4195ZM33.9251 0.424682C33.3523 0.133301 32.7702 0.424682 32.6293 0.998044C32.4885 1.13903 32.4885 1.28942 32.4885 1.57141V3.59227C32.4885 4.16563 32.9204 4.74839 33.3523 5.03978C44.5918 9.08151 50.3476 21.6203 46.1692 32.7303C44.0096 38.7835 39.2584 43.3986 33.3523 45.5605C32.7796 45.8519 32.4885 46.2842 32.4885 47.008V49.0289C32.4885 49.6022 32.7796 50.044 33.3523 50.185C33.4932 50.185 33.7843 50.185 33.9251 50.044C47.6059 45.7203 55.0988 31.1512 50.7796 17.4564C48.188 9.2225 41.85 3.01891 33.9251 0.424682Z" fill="white"/>
</g>
<defs>
<clipPath id="clip0_2667_16215">
<rect width="52" height="49.8919" fill="white" transform="translate(0 0.283691)"/>
</clipPath>
</defs>
</svg>
