<svg width="48" height="45" viewBox="0 0 48 45" fill="none" xmlns="http://www.w3.org/2000/svg">
<g id="Isolation_Mode" clip-path="url(#clip0_2667_9838)">
<path id="Vector" d="M28.8752 15.1057V9.11586H42.3302V0H5.70201V9.12679H19.157V15.1057C8.2255 15.6194 0 17.8164 0 20.4615C0 23.1066 8.2255 25.3036 19.157 25.8173V45H28.8859V25.8173C39.796 25.3036 48 23.1066 48 20.4615C48 17.8164 39.796 15.6194 28.8859 15.1057M28.8859 24.1887C28.6067 24.1997 27.2 24.2871 24.0644 24.2871C21.5517 24.2871 19.7906 24.2106 19.1678 24.1778C9.51409 23.7515 2.29799 22.0355 2.29799 19.9915C2.29799 17.9475 9.50336 16.2315 19.1678 15.7943V22.4836C19.8013 22.5273 21.6054 22.6366 24.1074 22.6366C27.1034 22.6366 28.6174 22.5055 28.8966 22.4836V15.7943C38.5396 16.2315 45.7342 17.9475 45.7342 19.9915C45.7342 22.0355 38.5396 23.7515 28.8966 24.1887" fill="white"/>
</g>
<defs>
<clipPath id="clip0_2667_9838">
<rect width="48" height="45" fill="white"/>
</clipPath>
</defs>
</svg>
